<svg id="Capa_1" data-name="Capa 1" xmlns="http://www.w3.org/2000/svg" viewBox="0 0 101.49 76.24">
<defs>
<style>.cls-1{fill:#f4d6a2;}</style>
</defs>
<title>Gabrielle Ricciardi logo small</title>
<path class="cls-1" d="M15.13,81.6a17.71,17.71,0,0,1-6.67-1.4,8.84,8.84,0,0,1-4.89-4.47,6,6,0,0,1-.72-2.33A22.24,22.24,0,0,1,2.72,71V70a4.25,4.25,0,0,1,.17-1.23.79.79,0,0,1,.85-.56.15.15,0,0,1,.17.17,7,7,0,0,1-.08,1,6.4,6.4,0,0,0-.09,1.11,7.22,7.22,0,0,0,2.51,6,9.57,9.57,0,0,0,6.25,2,19.17,19.17,0,0,0,9.86-2.64,29.32,29.32,0,0,0,8.15-7.22,56.28,56.28,0,0,0,5.83-8.63,79.06,79.06,0,0,0,3.95-8.54q1.7-4.34,3.49-8.93a23.73,23.73,0,0,1-6.12,6.08,35.87,35.87,0,0,1-8.46,4.42,25.54,25.54,0,0,1-8.8,1.66,22.88,22.88,0,0,1-8.46-1.57,14.47,14.47,0,0,1-6.33-4.72,12.71,12.71,0,0,1-2.38-7.91A28.54,28.54,0,0,1,5.36,29.75a40,40,0,0,1,5.69-9.82,42.72,42.72,0,0,1,8-7.86,34.26,34.26,0,0,1,9.05-4.85A30,30,0,0,1,38.33,5.35a25.3,25.3,0,0,1,4,.3,13.89,13.89,0,0,1,3.83,1.24A7.75,7.75,0,0,1,48.88,8.8a3.83,3.83,0,0,1,1,2.59v.42a.92.92,0,0,1-.08.43,9.71,9.71,0,0,1-1.57,3.1A15.32,15.32,0,0,0,46.33,19c-.06.23-.37.42-.94.56s-.79.1-.68-.13a9.19,9.19,0,0,0,1.06-2.72,13.72,13.72,0,0,0,.39-3.23,11.6,11.6,0,0,0-.22-2.25,5,5,0,0,0-.72-1.83,4.53,4.53,0,0,0-2.64-2.13,12.18,12.18,0,0,0-3.82-.59,18,18,0,0,0-3.91.43,28,28,0,0,0-3.4.93A30.85,30.85,0,0,0,22,13.6a41.75,41.75,0,0,0-7.09,8.07A44,44,0,0,0,10,31.11a26.77,26.77,0,0,0-1.78,9.26A13.69,13.69,0,0,0,10,47.68a10.49,10.49,0,0,0,4.63,4.13,14.78,14.78,0,0,0,6.21,1.31,22.84,22.84,0,0,0,12.11-3.18,29.87,29.87,0,0,0,8.88-8.38,41.59,41.59,0,0,0,5.61-11.13H38.67c-.67,0-1.61,0-2.8.13a21.09,21.09,0,0,0-3.66.59,8.11,8.11,0,0,0-3.14,1.49,3.39,3.39,0,0,0-1.28,2.8A5,5,0,0,0,28,36.68c.12.42.2.75.26,1l-.76.51c-.4-.73-.87-1.51-1.41-2.33a5,5,0,0,1-.89-2A6.41,6.41,0,0,1,25.25,32a3.29,3.29,0,0,1,1.1-1.95,5.54,5.54,0,0,1,2.93-1.23,25.62,25.62,0,0,1,4-.3c1.24,0,2.43,0,3.56.13s2,.12,2.73.12H55.67l-.93,1a10.16,10.16,0,0,0-2.63.39,4.39,4.39,0,0,0-2.39,1.57,17.5,17.5,0,0,0-2.84,5.35c-.65,2-1.32,4.08-2,6.29q-1.7,6-3.31,11.86a58.24,58.24,0,0,1-4.3,11.05A32.38,32.38,0,0,1,29.5,76a25.1,25.1,0,0,1-6.8,4A20.2,20.2,0,0,1,15.13,81.6Z" transform="translate(-2.72 -5.35)"/><path class="cls-1" d="M89.08,54a8.26,8.26,0,0,1-4.29-1.31,16.56,16.56,0,0,1-4.38-4.21,65,65,0,0,1-4.59-7.14c-1.25-2.27-2.25-4.25-3-6s-1.34-2.92-1.74-3.66a11.84,11.84,0,0,1,1.49-1.65,1.82,1.82,0,0,1,1.06-.56c2.66,0,5.06,0,7.18-.12a19.62,19.62,0,0,0,5.7-1A10.79,10.79,0,0,0,91,25.24,18,18,0,0,0,94.26,19a7.74,7.74,0,0,0,.56-2.08,18.53,18.53,0,0,0,.12-2.08,9.12,9.12,0,0,0-1.44-5.1,5.57,5.57,0,0,0-4.17-2.55,3,3,0,0,0-.76-.08h-.85a16.57,16.57,0,0,0-3.53.42A4.79,4.79,0,0,0,81.34,9.1a54.09,54.09,0,0,0-4.08,6.33q-2,3.53-3.74,7.14t-3.4,6.76c-.28.56-.82,1.57-1.61,3s-1.67,3.09-2.64,4.93S64,40.94,63.15,42.75a47.88,47.88,0,0,0-2,4.85,4.68,4.68,0,0,0-.39,2.89.33.33,0,0,1,.09.25.23.23,0,0,1-.26.26,3,3,0,0,1-1.36-.34,3.51,3.51,0,0,0-1.61-.34,3.81,3.81,0,0,0-1.7.42A12.78,12.78,0,0,0,53.72,52a13.27,13.27,0,0,1-3.06,1.53,1.15,1.15,0,0,1-.51.08,1.43,1.43,0,0,1-.94-.29c-.22-.2-.22-.36,0-.47a7.34,7.34,0,0,0,3.23-1.4,8.05,8.05,0,0,0,2.21-2.68q1.79-3,3.53-6t3.36-6.08q2-3.73,4-7.52t4.08-7.53q2-3.48,3.49-6.71t2.29-4.68a5.45,5.45,0,0,1,2.09-2,15,15,0,0,1,2.93-1.4c-.34,0-.68,0-1,0s-.71,0-1.11,0c-1.75,0-3.67.1-5.73.3a58.12,58.12,0,0,0-6,.89A23.56,23.56,0,0,0,61.37,9.6a6.07,6.07,0,0,0-3,2.47c-.22.51-.42,1-.59,1.53a4.82,4.82,0,0,0-.26,1.53,3.05,3.05,0,0,0,1.36,2.8c.06,0,.09.06.09.17s-.1.23-.3.34-.35.15-.47.09a5.86,5.86,0,0,1-1.91-2.08,11.72,11.72,0,0,1-1.4-2.77,7.76,7.76,0,0,1-.26-1.87A4.26,4.26,0,0,1,56.1,8.37a8.85,8.85,0,0,1,3.65-1.78,23.68,23.68,0,0,1,4.55-.68c1.56-.09,2.93-.13,4.12-.13q2.73,0,6.46,0c2.5,0,4.79,0,6.89,0,.51,0,1.07,0,1.7,0s1.27,0,2,0a43.62,43.62,0,0,1,4.76.26A15.45,15.45,0,0,1,94.69,7,6.52,6.52,0,0,1,97.83,9.6,10.22,10.22,0,0,1,99.28,15a12.28,12.28,0,0,1-2.47,7.83A21.67,21.67,0,0,1,94.94,25a16.44,16.44,0,0,1-2.38,2,21.76,21.76,0,0,1-5.27,2.6A36.17,36.17,0,0,1,81,31.11q-3.27.51-6,.68c.74,1.59,1.85,3.71,3.36,6.37a57,57,0,0,0,5.48,8,10.28,10.28,0,0,0,3.48,3,8,8,0,0,0,3.49.85,9.15,9.15,0,0,0,5.14-1.61,24.15,24.15,0,0,0,4.42-3.79,46.8,46.8,0,0,0,3.19-3.78c.17-.28.31-.43.42-.43s.26.17.26.52a2.23,2.23,0,0,1-.51,1.35,55.28,55.28,0,0,1-7.48,8.55Q92.65,54,89.08,54Z" transform="translate(-2.72 -5.35)"/>
</svg>